# xmcd CD database file
#
# Track frame offsets:
#	150
#	20957
#	38607
#	57875
#	75047
#	93182
#	110580
#	130132
#	148632
#	165480
#	183810
#	199407
#	213287
#	228225
#	247637
#	263467
#	278520
#
# Disc length: 3960 seconds
#
# Revision: 0
# Processed by: cddbd v1.5PL3 Copyright (c) Steve Scherf et al.
# Submitted via: CDex 1.50beta9
#
DISCID=cf0f7611
DTITLE=Various Artist - Tim For Sax
DYEAR=2001
DGENRE=Blues
TTITLE0=You Are Not Alone
TTITLE1=Change The World
TTITLE2=I`m Not Giving You Up
TTITLE3=Another Sad Love Song
TTITLE4=Adesso Tu
TTITLE5=All Out Of Love
TTITLE6=Help Me
TTITLE7=Rocket Man
TTITLE8=When You Say Nothing At All
TTITLE9=True Clours
TTITLE10=How Deep Is Your Love
TTITLE11=Feels Like Comin`Home
TTITLE12=She`s Always A Woman
TTITLE13=Sad I love You...But I Lied
TTITLE14=The Last Unicorn
TTITLE15=Big Big World
TTITLE16=Immortally
EXTD=YEAR: 2001
EXTT0=
EXTT1=
EXTT2=
EXTT3=
EXTT4=
EXTT5=
EXTT6=
EXTT7=
EXTT8=
EXTT9=
EXTT10=
EXTT11=
EXTT12=
EXTT13=
EXTT14=
EXTT15=
EXTT16=
PLAYORDER=
